<?xml version="1.0" encoding="utf-8"?>
<!-- Generator: Adobe Illustrator 23.0.1, SVG Export Plug-In . SVG Version: 6.00 Build 0)  -->
<svg version="1.1" id="Layer_1" xmlns="http://www.w3.org/2000/svg" xmlns:xlink="http://www.w3.org/1999/xlink" x="0px" y="0px"
	 viewBox="0 0 400 400" style="enable-background:new 0 0 400 400;" xml:space="preserve">
<style type="text/css">
	.st0{fill:#D3D3D3;}
	.st1{fill:#808080;}
</style>
<rect class="st0" width="400" height="400"/>
<path class="st1" d="M219.1,169.6c3.4,0,6.2,2.8,6.2,6.2c-0.3,8.3-12.2,8.3-12.5,0C212.9,172.4,215.7,169.6,219.1,169.6z
	 M244.9,199.2v-35.8c0-4.6-3.7-8.3-8.3-8.3h-73.2c-4.6,0-8.3,3.7-8.3,8.3v36.9l15.4-15.4c4.9-4.9,12.8-4.9,17.6,0l22.1,22.1l4.7-4.7
	c4.9-4.9,12.8-4.9,17.6,0l19.5,19.5c0.8,0.8,1.2,1.8,1.2,2.9v11.8c0,9.2-7.5,16.6-16.6,16.6h-73.2c-9.2,0-16.6-7.5-16.6-16.6v-73.2
	c0-9.2,7.5-16.6,16.6-16.6h73.2c9.2,0,16.6,7.5,16.6,16.6v35.8C253,204.7,245.1,204.7,244.9,199.2z M155.1,212.1v24.5
	c0,4.6,3.7,8.3,8.3,8.3h73.2c4.6,0,8.3-3.7,8.3-8.3v-10l-18.3-18.3c-1.6-1.6-4.3-1.6-5.9,0l-20.6,20.6c-1.6,1.6-4.3,1.6-5.9,0
	c-1.6-1.6-1.6-4.3,0-5.9l10-10l-22.1-22.1c-1.5-1.6-4.3-1.6-5.9,0L155.1,212.1z"/>
</svg>
